# xmcd
#
# Track frame offsets:
#   150
#   14371
#   34758
#   50644
#   69584
#   82179
#   100889
#   118583
#   132455
#   146986
#   163037
#   175838
#   195804
#   210294
#   226236
#   239867
#
# Disc length: 3355 seconds
#
# Revision: 0
# Processed by: cddbd v1.4PL0 Copyright (c) Steve Scherf et al.
# Submitted via: uFREEDB 1.6.0
#
DISCID=e40d1910
DTITLE=varios artistas - Baladas en Español II
DYEAR=1999
DGENRE=Blues
TTITLE0=Alguien canto
TTITLE1=Motivos
TTITLE2=la quiero a morir
TTITLE3=La hiedra
TTITLE4=como quisiera decirte
TTITLE5=Y como es el
TTITLE6=Te he querido
TTITLE7=En un rincon del alma
TTITLE8=Quisiera
TTITLE9=Otro ocupa mi lugar
TTITLE10=Serenata
TTITLE11=Me enamore
TTITLE12=Ven
TTITLE13=Nostalgia
TTITLE14=Aniversario
TTITLE15=No me importa
EXTD=
EXTT0=
EXTT1=
EXTT2=
EXTT3=
EXTT4=
EXTT5=
EXTT6=
EXTT7=
EXTT8=
EXTT9=
EXTT10=
EXTT11=
EXTT12=
EXTT13=
EXTT14=
EXTT15=
PLAYORDER=
